<svg xmlns="http://www.w3.org/2000/svg" viewBox="0 0 256 256">
    <defs>
      <linearGradient id="bg" x1="0" y1="0" x2="1" y2="1">
        <stop stop-color="#0D2A46"/><stop offset=".58" stop-color="#071624"/><stop offset="1" stop-color="#030A12"/>
      </linearGradient>
      <linearGradient id="cloth" x1="0" y1="0" x2="0" y2="1">
        <stop stop-color="#262B31"/><stop offset="1" stop-color="#0B1118"/>
      </linearGradient>
      <radialGradient id="light"><stop stop-color="#FFFFFF" stop-opacity=".85"/><stop offset="1" stop-color="#FFFFFF" stop-opacity="0"/></radialGradient>
      <filter id="shadow"><feDropShadow dx="0" dy="5" stdDeviation="5" flood-opacity=".45"/></filter>
    </defs>
    <rect width="256" height="256" rx="22" fill="url(#bg)"/>
    <circle cx="36" cy="38" r="32" fill="url(#light)"/><circle cx="220" cy="38" r="32" fill="url(#light)"/>
    <g opacity=".55" fill="#F6D568">
      <circle cx="24" cy="39" r="3"/><circle cx="35" cy="31" r="3"/><circle cx="47" cy="42" r="3"/>
      <circle cx="209" cy="31" r="3"/><circle cx="220" cy="43" r="3"/><circle cx="232" cy="34" r="3"/>
    </g>
    <path d="M0 187 Q128 148 256 187 V256 H0Z" fill="#123A22" opacity=".72"/>
    <path d="M128 184 V256 M54 205 H202 M83 226 H173" stroke="#D8E6D7" stroke-width="2" opacity=".28"/>
    <g filter="url(#shadow)">
      <path d="M73 96 Q52 137 70 205 L91 185 Q77 141 91 102Z" fill="#35201B"/><path d="M183 96 Q204 137 186 205 L165 185 Q179 141 165 102Z" fill="#35201B"/>
      <path d="M49 256 Q58 188 99 176 H157 Q198 188 207 256Z" fill="url(#cloth)" stroke="#D4AB3C" stroke-width="3"/>
      <path d="M102 175 L128 203 L154 175" fill="none" stroke="#D4AB3C" stroke-width="5"/>
      <text x="128" y="236" text-anchor="middle" font-family="Arial Black,Arial" font-size="31" fill="#F1F3F5" opacity=".88">13</text>
      <ellipse cx="128" cy="119" rx="50" ry="62" fill="#E8B68D"/>
      <path d="M78 110 Q70 44 128 40 Q190 43 180 116 Q166 86 128 86 Q92 86 78 110Z" fill="#35201B"/>
      
      
        <path d="M74 96 Q71 62 91 52" fill="none" stroke="#BAC6D1" stroke-width="7"/>
        <rect x="66" y="91" width="17" height="36" rx="8" fill="#20262C" stroke="#BAC6D1" stroke-width="3"/>
        <path d="M74 117 Q86 129 102 125" fill="none" stroke="#BAC6D1" stroke-width="4"/>
        
      <ellipse cx="108" cy="116" rx="5" ry="7" fill="#241812"/><ellipse cx="148" cy="116" rx="5" ry="7" fill="#241812"/>
      <path d="M128 119 Q121 135 129 137" fill="none" stroke="#8A563A" stroke-width="3" stroke-linecap="round"/>
      <path d="M105 145 Q128 162 151 145" fill="none" stroke="#642D27" stroke-width="5" stroke-linecap="round"/>
      
      
      <path d="M82 104 Q99 94 116 101 M140 101 Q157 94 174 104" fill="none" stroke="#35201B" stroke-width="5" stroke-linecap="round"/>
    </g>
    <rect x="3" y="3" width="250" height="250" rx="20" fill="none" stroke="#D4AB3C" stroke-width="4" opacity=".85"/>
    </svg>